<svg width="310" height="260" viewBox="0 0 310 260" fill="none" xmlns="http://www.w3.org/2000/svg">
<path d="M55.6329 250.925H52.5565V210.458H46.5575V250.925H43.481V156.502H46.5575V194.764H52.5565V156.502H55.6329V250.925Z" fill="white"/>
<path d="M62.7215 250.925H58.6709V141.593H62.7215V250.925Z" fill="white"/>
<path d="M72.0167 205.444H69.2422V250.925H65.7595V126.684H72.0399C74.0367 126.684 75.5768 129.955 76.6603 136.497C77.7438 143.039 78.2856 152.283 78.2856 164.229C78.2856 172.705 78.034 179.788 77.531 185.477C77.0357 191.108 76.2811 195.602 75.2672 198.959L78.924 249.73V250.925H75.186L72.0167 205.444ZM69.2422 184.709H72.0515C72.9261 184.709 73.6033 183.087 74.0831 179.845C74.5629 176.545 74.8029 172.023 74.8029 166.277C74.8029 160.418 74.5746 155.81 74.118 152.454C73.669 149.097 72.9764 147.419 72.0399 147.419H69.2422V184.709Z" fill="white"/>
<path d="M40.3456 228.362C40.2015 235.205 39.464 240.593 38.1332 244.524C36.8109 248.455 35.0647 250.42 32.8947 250.42C30.5213 250.42 28.6522 247.683 27.2875 242.209C25.9313 236.705 25.2532 229.163 25.2532 219.583V215.696C25.2532 209.581 25.5668 204.194 26.194 199.535C26.8213 194.876 27.7156 191.309 28.8769 188.834C30.0466 186.329 31.4028 185.077 32.9456 185.077C35.0816 185.077 36.8024 187.043 38.1078 190.974C39.4131 194.905 40.1675 200.423 40.371 207.528H36.5565C36.4633 203.422 36.1285 200.452 35.5521 198.617C34.9842 196.754 34.1153 195.822 32.9456 195.822C31.6741 195.822 30.7205 197.394 30.0848 200.539C29.4575 203.655 29.1354 208.503 29.1184 215.084V219.889C29.1184 226.761 29.4194 231.784 30.0212 234.958C30.6315 238.132 31.5893 239.719 32.8947 239.719C34.073 239.719 34.9503 238.802 35.5267 236.967C36.1116 235.104 36.4464 232.235 36.5311 228.362H40.3456Z" fill="white"/>
<path d="M88.6506 199.077H85.2357V250.925H80.9494V109.29H88.6791C91.1367 109.29 93.0322 113.019 94.3657 120.477C95.6993 127.935 96.3661 138.473 96.3661 152.092C96.3661 161.755 96.0565 169.829 95.4374 176.314C94.8277 182.734 93.899 187.857 92.6512 191.683L97.1519 249.563V250.925H92.5512L88.6506 199.077ZM85.2357 175.438H88.6934C89.7698 175.438 90.6033 173.59 91.1938 169.893C91.7844 166.132 92.0797 160.976 92.0797 154.427C92.0797 147.747 91.7987 142.494 91.2367 138.668C90.6842 134.842 89.8317 132.928 88.6791 132.928H85.2357V175.438Z" fill="white"/>
<path d="M113.74 190.078V250.925H108.291V78.2299H118.608C120.594 78.2299 122.338 80.6021 123.84 85.3465C125.353 90.0909 126.516 96.8517 127.327 105.629C128.139 114.327 128.544 124.25 128.544 135.4C128.544 152.321 127.654 165.685 125.874 175.489C124.106 185.215 121.654 190.078 118.518 190.078H113.74ZM113.74 161.256H118.608C120.049 161.256 121.145 159.042 121.896 154.614C122.659 150.186 123.041 143.86 123.041 135.637C123.041 127.176 122.659 120.336 121.896 115.117C121.133 109.899 120.08 107.21 118.736 107.052H113.74V161.256Z" fill="white"/>
<path d="M106.266 250.925H100.19V96.8661H106.266V250.925Z" fill="white"/>
<path d="M161.962 153.542C161.962 173.064 161.341 190.18 160.1 204.89C158.859 219.6 157.078 230.949 154.759 238.941C152.456 246.931 149.81 250.925 146.821 250.925C143.865 250.925 141.227 246.976 138.908 239.077C136.588 231.176 134.792 219.917 133.518 205.299C132.244 190.589 131.599 173.7 131.582 154.632V144.825C131.582 125.303 132.211 108.142 133.469 93.3417C134.743 78.4504 136.531 67.0551 138.834 59.1553C141.153 51.1649 143.799 47.1697 146.772 47.1697C149.745 47.1697 152.383 51.1649 154.686 59.1553C157.005 67.0551 158.793 78.4504 160.051 93.3417C161.325 108.142 161.962 125.258 161.962 144.689V153.542ZM154.514 144.553C154.514 123.76 153.844 107.961 152.505 97.1553C151.166 86.3501 149.255 80.9474 146.772 80.9474C144.306 80.9474 142.403 86.3046 141.064 97.019C139.724 107.643 139.046 123.26 139.03 143.872V153.542C139.03 173.791 139.7 189.499 141.039 200.668C142.378 211.836 144.306 217.421 146.821 217.421C149.287 217.421 151.182 212.063 152.505 201.349C153.828 190.544 154.498 174.835 154.514 154.223V144.553Z" fill="white"/>
<path d="M181.76 226.077H173.101V236.43H181.76V226.077Z" fill="white"/>
<path d="M193.354 226.077H184.695V236.43H193.354V226.077Z" fill="white"/>
<path d="M181.76 240.195H173.101V250.925H181.76V240.195Z" fill="white"/>
<path d="M193.354 240.195H184.695V250.925H193.354V240.195Z" fill="white"/>
<path d="M181.76 192.532H173.101V202.885H181.76V192.532Z" fill="white"/>
<path d="M193.354 192.532H184.695V202.885H193.354V192.532Z" fill="white"/>
<path d="M181.76 206.65H173.101V217.38H181.76V206.65Z" fill="white"/>
<path d="M193.354 206.65H184.695V217.38H193.354V206.65Z" fill="white"/>
<path d="M181.76 155.259H173.101V165.613H181.76V155.259Z" fill="white"/>
<path d="M193.354 155.259H184.695V165.613H193.354V155.259Z" fill="white"/>
<path d="M181.76 169.378H173.101V180.108H181.76V169.378Z" fill="white"/>
<path d="M193.354 169.378H184.695V180.108H193.354V169.378Z" fill="white"/>
<path d="M181.76 116.745H173.101V127.098H181.76V116.745Z" fill="white"/>
<path d="M193.354 116.745H184.695V127.098H193.354V116.745Z" fill="white"/>
<path d="M181.76 130.863H173.101V141.593H181.76V130.863Z" fill="white"/>
<path d="M193.354 130.863H184.695V141.593H193.354V130.863Z" fill="white"/>
<path d="M181.76 78.2299H173.101V88.5834H181.76V78.2299Z" fill="white"/>
<path d="M193.354 78.2299H184.695V88.5834H193.354V78.2299Z" fill="white"/>
<path d="M181.76 92.3482H173.101V103.078H181.76V92.3482Z" fill="white"/>
<path d="M193.354 92.3482H184.695V103.078H193.354V92.3482Z" fill="white"/>
<path d="M210.115 226.077H201.456V236.43H210.115V226.077Z" fill="white"/>
<path d="M221.709 226.077H213.05V236.43H221.709V226.077Z" fill="white"/>
<path d="M210.115 240.195H201.456V250.925H210.115V240.195Z" fill="white"/>
<path d="M221.709 240.195H213.05V250.925H221.709V240.195Z" fill="white"/>
<path d="M238.469 226.077H229.81V236.43H238.469V226.077Z" fill="white"/>
<path d="M250.063 226.077H241.404V236.43H250.063V226.077Z" fill="white"/>
<path d="M238.469 240.195H229.81V250.925H238.469V240.195Z" fill="white"/>
<path d="M250.063 240.195H241.404V250.925H250.063V240.195Z" fill="white"/>
<path d="M238.469 192.532H229.81V202.885H238.469V192.532Z" fill="white"/>
<path d="M250.063 192.532H241.404V202.885H250.063V192.532Z" fill="white"/>
<path d="M238.469 206.65H229.81V217.38H238.469V206.65Z" fill="white"/>
<path d="M250.063 206.65H241.404V217.38H250.063V206.65Z" fill="white"/>
<path d="M238.469 156.502H229.81V166.855H238.469V156.502Z" fill="white"/>
<path d="M250.063 156.502H241.404V166.855H250.063V156.502Z" fill="white"/>
<path d="M238.469 170.62H229.81V181.35H238.469V170.62Z" fill="white"/>
<path d="M250.063 170.62H241.404V181.35H250.063V170.62Z" fill="white"/>
<path d="M266.823 226.077H258.165V236.43H266.823V226.077Z" fill="white"/>
<path d="M278.418 226.077H269.759V236.43H278.418V226.077Z" fill="white"/>
<path d="M266.823 240.195H258.165V250.925H266.823V240.195Z" fill="white"/>
<path d="M278.418 240.195H269.759V250.925H278.418V240.195Z" fill="white"/>
<path d="M210.115 192.532H201.456V202.885H210.115V192.532Z" fill="white"/>
<path d="M221.709 192.532H213.05V202.885H221.709V192.532Z" fill="white"/>
<path d="M210.115 206.65H201.456V217.38H210.115V206.65Z" fill="white"/>
<path d="M221.709 206.65H213.05V217.38H221.709V206.65Z" fill="white"/>
<path d="M210.115 155.259H201.456V165.613H210.115V155.259Z" fill="white"/>
<path d="M221.709 155.259H213.05V165.613H221.709V155.259Z" fill="white"/>
<path d="M210.115 169.378H201.456V180.108H210.115V169.378Z" fill="white"/>
<path d="M221.709 169.378H213.05V180.108H221.709V169.378Z" fill="white"/>
<path d="M210.115 116.745H201.456V127.098H210.115V116.745Z" fill="white"/>
<path d="M221.709 116.745H213.05V127.098H221.709V116.745Z" fill="white"/>
<path d="M210.115 130.863H201.456V141.593H210.115V130.863Z" fill="white"/>
<path d="M221.709 130.863H213.05V141.593H221.709V130.863Z" fill="white"/>
<path d="M5 255C5 240.133 5 225.267 5 210.4C5 196.345 10.7894 184.559 16.1111 171.234C21.2397 158.392 29.2677 145.986 35.661 133.766C42.4772 120.737 62.1095 114.142 69.2757 101.165C74.3078 92.0522 75.0518 82.6092 81.2307 73.6579C84.9147 68.3208 92.9402 64.3268 99.2335 61.4325C105.316 58.6353 109.832 52.1242 111.61 46.7169C117.389 29.1474 127.938 12.8666 149.304 5.62624C161.812 1.38752 171.337 19.8214 175.886 26.2282C178.726 30.2275 182.424 34.042 185.028 38.0007C187.271 41.4096 189.365 47.9021 192.975 50.226C195.113 51.6026 199.047 56.1406 200.57 58.3196C202.782 61.4844 205.777 63.3269 207.25 66.7528C209.589 72.1911 213.478 78.1973 217.025 83.3362C220.223 87.9688 219.775 93.4328 223.003 98.1085C226.289 102.869 233.331 105.213 236.646 109.881C239.826 114.361 243.864 118.124 244.241 123.578C244.561 128.216 249.827 131.763 251.835 135.803C253.943 140.044 260.349 142.829 262.947 147.01C265.632 151.332 270.823 157.999 270.823 162.801C270.823 166.925 273.388 173.841 274.902 177.799C276.748 182.629 277.334 189.043 280.316 193.364C286.802 202.759 295.002 212.318 298.741 222.852C300.26 227.13 302.468 231.76 302.468 236.662C302.468 241.431 305 245.356 305 249.906" stroke="white" stroke-width="9" stroke-linecap="round" stroke-linejoin="round"/>
</svg>
